{
	"asset":{
		"generator":"Khronos glTF Blender I/O v4.3.47",
		"version":"2.0"
	},
	"extensionsUsed":[
		"KHR_materials_specular"
	],
	"scene":0,
	"scenes":[
		{
			"name":"Scene",
			"nodes":[
				2
			]
		}
	],
	"nodes":[
		{
			"name":"Bone"
		},
		{
			"mesh":0,
			"name":"Box003",
			"skin":0
		},
		{
			"children":[
				1,
				0
			],
			"name":"Armature",
			"scale":[
				0.11090279370546341,
				0.11090279370546341,
				0.11090279370546341
			]
		}
	],
	"materials":[
		{
			"doubleSided":true,
			"extensions":{
				"KHR_materials_specular":{
					"specularFactor":0
				}
			},
			"name":"Standardmaterial",
			"pbrMetallicRoughness":{
				"baseColorTexture":{
					"index":0
				},
				"roughnessFactor":0.858578622341156
			}
		}
	],
	"meshes":[
		{
			"name":"Mesh",
			"primitives":[
				{
					"attributes":{
						"POSITION":0,
						"NORMAL":1,
						"TEXCOORD_0":2,
						"JOINTS_0":3,
						"WEIGHTS_0":4
					},
					"indices":5,
					"material":0
				}
			]
		}
	],
	"textures":[
		{
			"sampler":0,
			"source":0
		}
	],
	"images":[
		{
			"mimeType":"image/png",
			"name":"Map #3",
			"uri":"../../textures/ships/scorpio.png"
		}
	],
	"skins":[
		{
			"inverseBindMatrices":6,
			"joints":[
				0
			],
			"name":"Armature"
		}
	],
	"accessors":[
		{
			"bufferView":0,
			"componentType":5126,
			"count":160,
			"max":[
				0.08076842129230499,
				0.13597740232944489,
				0.10230057686567307
			],
			"min":[
				-0.08076842129230499,
				-0.001795222982764244,
				-0.1279057264328003
			],
			"type":"VEC3"
		},
		{
			"bufferView":1,
			"componentType":5126,
			"count":160,
			"type":"VEC3"
		},
		{
			"bufferView":2,
			"componentType":5126,
			"count":160,
			"type":"VEC2"
		},
		{
			"bufferView":3,
			"componentType":5121,
			"count":160,
			"type":"VEC4"
		},
		{
			"bufferView":4,
			"componentType":5126,
			"count":160,
			"type":"VEC4"
		},
		{
			"bufferView":5,
			"componentType":5123,
			"count":270,
			"type":"SCALAR"
		},
		{
			"bufferView":6,
			"componentType":5126,
			"count":1,
			"type":"MAT4"
		}
	],
	"bufferViews":[
		{
			"buffer":0,
			"byteLength":1920,
			"byteOffset":0,
			"target":34962
		},
		{
			"buffer":0,
			"byteLength":1920,
			"byteOffset":1920,
			"target":34962
		},
		{
			"buffer":0,
			"byteLength":1280,
			"byteOffset":3840,
			"target":34962
		},
		{
			"buffer":0,
			"byteLength":640,
			"byteOffset":5120,
			"target":34962
		},
		{
			"buffer":0,
			"byteLength":2560,
			"byteOffset":5760,
			"target":34962
		},
		{
			"buffer":0,
			"byteLength":540,
			"byteOffset":8320,
			"target":34963
		},
		{
			"buffer":0,
			"byteLength":64,
			"byteOffset":8860
		}
	],
	"samplers":[
		{
			"magFilter":9729,
			"minFilter":9987
		}
	],
	"buffers":[
		{
			"byteLength":8924,
			"uri":"scorpio.bin"
		}
	]
}
