{
	"asset":{
		"generator":"Khronos glTF Blender I/O v4.3.47",
		"version":"2.0"
	},
	"extensionsUsed":[
		"KHR_materials_specular",
		"KHR_materials_ior"
	],
	"scene":0,
	"scenes":[
		{
			"name":"Scene",
			"nodes":[
				15
			]
		}
	],
	"nodes":[
		{
			"name":"Bone.005",
			"rotation":[
				-1.0046172604916137e-07,
				-8.19718053435281e-08,
				0.2699766457080841,
				0.9628669023513794
			],
			"scale":[
				0.9999999403953552,
				0.9999998211860657,
				1
			],
			"translation":[
				1.4901230471764393e-08,
				0.6557795405387878,
				-9.237055564881302e-14
			]
		},
		{
			"name":"Bone.006",
			"rotation":[
				1.7622610926082416e-07,
				-9.347939311510345e-08,
				-0.5050339102745056,
				0.8630995154380798
			],
			"scale":[
				0.9999998807907104,
				0.9999997615814209,
				1
			],
			"translation":[
				1.4901230471764393e-08,
				0.6557795405387878,
				-9.237055564881302e-14
			]
		},
		{
			"children":[
				0,
				1
			],
			"name":"Bone.004",
			"rotation":[
				5.3770573771316776e-08,
				1.9547199769931467e-07,
				-0.2089293748140335,
				0.9779307246208191
			],
			"scale":[
				1,
				0.9999998807907104,
				1
			],
			"translation":[
				7.771561172376096e-15,
				0.24174576997756958,
				-1.4210854715202004e-14
			]
		},
		{
			"children":[
				2
			],
			"name":"Bone.003",
			"rotation":[
				8.633999293294892e-09,
				1.02462180961993e-08,
				-0.18348288536071777,
				0.983022928237915
			],
			"scale":[
				0.9999999403953552,
				1.0000001192092896,
				1.0000001192092896
			],
			"translation":[
				-5.9604641222676946e-08,
				0.12918180227279663,
				-5.329070518200751e-15
			]
		},
		{
			"children":[
				3
			],
			"name":"Bone.002",
			"rotation":[
				-2.1594216192966087e-08,
				1.5321428747938626e-07,
				-0.1812187284231186,
				0.9834427833557129
			],
			"scale":[
				0.9999999403953552,
				0.9999999403953552,
				1
			],
			"translation":[
				-1.4901164746561335e-08,
				0.6777457594871521,
				1.7763568394002505e-15
			]
		},
		{
			"children":[
				4
			],
			"name":"Bone.001",
			"rotation":[
				-6.652568629306188e-08,
				-3.2188509635489027e-08,
				-0.786002516746521,
				0.618223249912262
			],
			"translation":[
				0,
				0.9999999403953552,
				0
			]
		},
		{
			"name":"Bone.011",
			"rotation":[
				-4.355985439019605e-08,
				-9.34997785861924e-08,
				-0.12325423210859299,
				0.9923751354217529
			],
			"scale":[
				1,
				0.9999999403953552,
				1
			],
			"translation":[
				1.0430808572436945e-07,
				0.6243472695350647,
				-1.4210854715202004e-14
			]
		},
		{
			"name":"Bone.012",
			"rotation":[
				5.2436806896594135e-08,
				1.322191565122921e-07,
				0.4858875274658203,
				0.8740213513374329
			],
			"scale":[
				0.9999999403953552,
				1,
				1
			],
			"translation":[
				1.0430808572436945e-07,
				0.6243472695350647,
				-1.4210854715202004e-14
			]
		},
		{
			"children":[
				6,
				7
			],
			"name":"Bone.010",
			"rotation":[
				2.4116893371228798e-08,
				-1.0608309963799911e-07,
				0.15892764925956726,
				0.9872902631759644
			],
			"scale":[
				0.9999999403953552,
				1,
				1.0000001192092896
			],
			"translation":[
				-1.7881393432617188e-07,
				0.2756265699863434,
				7.105427357601002e-15
			]
		},
		{
			"children":[
				8
			],
			"name":"Bone.009",
			"rotation":[
				-1.3030097001376362e-09,
				-4.653546881172588e-08,
				0.2954288423061371,
				0.9553647637367249
			],
			"scale":[
				1.0000001192092896,
				1.0000001192092896,
				1
			],
			"translation":[
				1.1920928955078125e-07,
				0.144314706325531,
				-3.552713678800501e-15
			]
		},
		{
			"children":[
				9
			],
			"name":"Bone.008",
			"rotation":[
				-1.6104740652167493e-08,
				-1.1746246997290655e-07,
				0.09412108361721039,
				0.9955607652664185
			],
			"scale":[
				1,
				0.9999999403953552,
				0.9999998807907104
			],
			"translation":[
				-2.9802318834981634e-08,
				0.6100756525993347,
				-1.5987211554602254e-14
			]
		},
		{
			"children":[
				10
			],
			"name":"Bone.007",
			"rotation":[
				-7.39932275450883e-08,
				3.446245244731472e-08,
				0.7942710518836975,
				0.6075635552406311
			],
			"scale":[
				0.9999998807907104,
				0.9999998807907104,
				1
			],
			"translation":[
				0,
				0.9999999403953552,
				0
			]
		},
		{
			"name":"Bone.013",
			"rotation":[
				6.746048342165523e-08,
				5.560384508385141e-08,
				-0.00510184234008193,
				0.999987006187439
			],
			"translation":[
				0,
				0.9999999403953552,
				0
			]
		},
		{
			"children":[
				5,
				11,
				12
			],
			"name":"Bone",
			"translation":[
				0,
				2.9802322387695312e-08,
				0
			]
		},
		{
			"mesh":0,
			"name":"Sphere.001",
			"skin":0
		},
		{
			"children":[
				14,
				13
			],
			"name":"Armature",
			"scale":[
				2.8404037952423096,
				2.8404037952423096,
				2.8404037952423096
			],
			"translation":[
				0,
				1.4173338413238525,
				0
			]
		}
	],
	"animations":[
		{
			"channels":[
				{
					"sampler":0,
					"target":{
						"node":13,
						"path":"translation"
					}
				},
				{
					"sampler":1,
					"target":{
						"node":13,
						"path":"rotation"
					}
				},
				{
					"sampler":2,
					"target":{
						"node":13,
						"path":"scale"
					}
				},
				{
					"sampler":3,
					"target":{
						"node":5,
						"path":"translation"
					}
				},
				{
					"sampler":4,
					"target":{
						"node":5,
						"path":"rotation"
					}
				},
				{
					"sampler":5,
					"target":{
						"node":5,
						"path":"scale"
					}
				},
				{
					"sampler":6,
					"target":{
						"node":4,
						"path":"translation"
					}
				},
				{
					"sampler":7,
					"target":{
						"node":4,
						"path":"rotation"
					}
				},
				{
					"sampler":8,
					"target":{
						"node":4,
						"path":"scale"
					}
				},
				{
					"sampler":9,
					"target":{
						"node":3,
						"path":"translation"
					}
				},
				{
					"sampler":10,
					"target":{
						"node":3,
						"path":"rotation"
					}
				},
				{
					"sampler":11,
					"target":{
						"node":3,
						"path":"scale"
					}
				},
				{
					"sampler":12,
					"target":{
						"node":2,
						"path":"translation"
					}
				},
				{
					"sampler":13,
					"target":{
						"node":2,
						"path":"rotation"
					}
				},
				{
					"sampler":14,
					"target":{
						"node":2,
						"path":"scale"
					}
				},
				{
					"sampler":15,
					"target":{
						"node":0,
						"path":"translation"
					}
				},
				{
					"sampler":16,
					"target":{
						"node":0,
						"path":"rotation"
					}
				},
				{
					"sampler":17,
					"target":{
						"node":0,
						"path":"scale"
					}
				},
				{
					"sampler":18,
					"target":{
						"node":1,
						"path":"translation"
					}
				},
				{
					"sampler":19,
					"target":{
						"node":1,
						"path":"rotation"
					}
				},
				{
					"sampler":20,
					"target":{
						"node":1,
						"path":"scale"
					}
				},
				{
					"sampler":21,
					"target":{
						"node":11,
						"path":"translation"
					}
				},
				{
					"sampler":22,
					"target":{
						"node":11,
						"path":"rotation"
					}
				},
				{
					"sampler":23,
					"target":{
						"node":11,
						"path":"scale"
					}
				},
				{
					"sampler":24,
					"target":{
						"node":10,
						"path":"translation"
					}
				},
				{
					"sampler":25,
					"target":{
						"node":10,
						"path":"rotation"
					}
				},
				{
					"sampler":26,
					"target":{
						"node":10,
						"path":"scale"
					}
				},
				{
					"sampler":27,
					"target":{
						"node":9,
						"path":"translation"
					}
				},
				{
					"sampler":28,
					"target":{
						"node":9,
						"path":"rotation"
					}
				},
				{
					"sampler":29,
					"target":{
						"node":9,
						"path":"scale"
					}
				},
				{
					"sampler":30,
					"target":{
						"node":8,
						"path":"translation"
					}
				},
				{
					"sampler":31,
					"target":{
						"node":8,
						"path":"rotation"
					}
				},
				{
					"sampler":32,
					"target":{
						"node":8,
						"path":"scale"
					}
				},
				{
					"sampler":33,
					"target":{
						"node":6,
						"path":"translation"
					}
				},
				{
					"sampler":34,
					"target":{
						"node":6,
						"path":"rotation"
					}
				},
				{
					"sampler":35,
					"target":{
						"node":6,
						"path":"scale"
					}
				},
				{
					"sampler":36,
					"target":{
						"node":7,
						"path":"translation"
					}
				},
				{
					"sampler":37,
					"target":{
						"node":7,
						"path":"rotation"
					}
				},
				{
					"sampler":38,
					"target":{
						"node":7,
						"path":"scale"
					}
				},
				{
					"sampler":39,
					"target":{
						"node":12,
						"path":"translation"
					}
				},
				{
					"sampler":40,
					"target":{
						"node":12,
						"path":"rotation"
					}
				},
				{
					"sampler":41,
					"target":{
						"node":12,
						"path":"scale"
					}
				}
			],
			"name":"ArmatureAction",
			"samplers":[
				{
					"input":11,
					"interpolation":"STEP",
					"output":12
				},
				{
					"input":11,
					"interpolation":"STEP",
					"output":13
				},
				{
					"input":11,
					"interpolation":"STEP",
					"output":14
				},
				{
					"input":11,
					"interpolation":"STEP",
					"output":15
				},
				{
					"input":11,
					"interpolation":"STEP",
					"output":16
				},
				{
					"input":11,
					"interpolation":"STEP",
					"output":17
				},
				{
					"input":11,
					"interpolation":"STEP",
					"output":18
				},
				{
					"input":19,
					"interpolation":"LINEAR",
					"output":20
				},
				{
					"input":11,
					"interpolation":"STEP",
					"output":21
				},
				{
					"input":11,
					"interpolation":"STEP",
					"output":22
				},
				{
					"input":19,
					"interpolation":"LINEAR",
					"output":23
				},
				{
					"input":11,
					"interpolation":"STEP",
					"output":24
				},
				{
					"input":11,
					"interpolation":"STEP",
					"output":25
				},
				{
					"input":19,
					"interpolation":"LINEAR",
					"output":26
				},
				{
					"input":11,
					"interpolation":"STEP",
					"output":27
				},
				{
					"input":11,
					"interpolation":"STEP",
					"output":28
				},
				{
					"input":19,
					"interpolation":"LINEAR",
					"output":29
				},
				{
					"input":11,
					"interpolation":"STEP",
					"output":30
				},
				{
					"input":11,
					"interpolation":"STEP",
					"output":31
				},
				{
					"input":19,
					"interpolation":"LINEAR",
					"output":32
				},
				{
					"input":11,
					"interpolation":"STEP",
					"output":33
				},
				{
					"input":11,
					"interpolation":"STEP",
					"output":34
				},
				{
					"input":11,
					"interpolation":"STEP",
					"output":35
				},
				{
					"input":11,
					"interpolation":"STEP",
					"output":36
				},
				{
					"input":11,
					"interpolation":"STEP",
					"output":37
				},
				{
					"input":11,
					"interpolation":"STEP",
					"output":38
				},
				{
					"input":11,
					"interpolation":"STEP",
					"output":39
				},
				{
					"input":11,
					"interpolation":"STEP",
					"output":40
				},
				{
					"input":11,
					"interpolation":"STEP",
					"output":41
				},
				{
					"input":11,
					"interpolation":"STEP",
					"output":42
				},
				{
					"input":11,
					"interpolation":"STEP",
					"output":43
				},
				{
					"input":11,
					"interpolation":"STEP",
					"output":44
				},
				{
					"input":11,
					"interpolation":"STEP",
					"output":45
				},
				{
					"input":11,
					"interpolation":"STEP",
					"output":46
				},
				{
					"input":11,
					"interpolation":"STEP",
					"output":47
				},
				{
					"input":11,
					"interpolation":"STEP",
					"output":48
				},
				{
					"input":11,
					"interpolation":"STEP",
					"output":49
				},
				{
					"input":11,
					"interpolation":"STEP",
					"output":50
				},
				{
					"input":11,
					"interpolation":"STEP",
					"output":51
				},
				{
					"input":11,
					"interpolation":"STEP",
					"output":52
				},
				{
					"input":19,
					"interpolation":"LINEAR",
					"output":53
				},
				{
					"input":11,
					"interpolation":"STEP",
					"output":54
				}
			]
		}
	],
	"materials":[
		{
			"doubleSided":true,
			"name":"Orange.001",
			"pbrMetallicRoughness":{
				"baseColorFactor":[
					1,
					0.32846593856811523,
					0.013835310935974121,
					1
				],
				"metallicFactor":0,
				"roughnessFactor":0.5
			}
		},
		{
			"doubleSided":true,
			"extensions":{
				"KHR_materials_specular":{
					"specularColorFactor":[
						1.076923131942749,
						1.076923131942749,
						1.076923131942749
					]
				},
				"KHR_materials_ior":{
					"ior":1.4500000476837158
				}
			},
			"name":"metal",
			"pbrMetallicRoughness":{
				"baseColorFactor":[
					0.20249691605567932,
					0.20249691605567932,
					0.20249691605567932,
					1
				],
				"roughnessFactor":0.6553612947463989
			}
		}
	],
	"meshes":[
		{
			"name":"Sphere.002",
			"primitives":[
				{
					"attributes":{
						"POSITION":0,
						"NORMAL":1,
						"JOINTS_0":2,
						"WEIGHTS_0":3
					},
					"indices":4,
					"material":0
				},
				{
					"attributes":{
						"POSITION":5,
						"NORMAL":6,
						"JOINTS_0":7,
						"WEIGHTS_0":8
					},
					"indices":9,
					"material":1
				}
			]
		}
	],
	"skins":[
		{
			"inverseBindMatrices":10,
			"joints":[
				13,
				5,
				4,
				3,
				2,
				0,
				1,
				11,
				10,
				9,
				8,
				6,
				7,
				12
			],
			"name":"Armature"
		}
	],
	"accessors":[
		{
			"bufferView":0,
			"componentType":5126,
			"count":19674,
			"max":[
				3.44393253326416,
				7.0058393478393555,
				2.6109018325805664
			],
			"min":[
				-3.2889132499694824,
				0.48042434453964233,
				-2.610902786254883
			],
			"type":"VEC3"
		},
		{
			"bufferView":1,
			"componentType":5126,
			"count":19674,
			"type":"VEC3"
		},
		{
			"bufferView":2,
			"componentType":5121,
			"count":19674,
			"type":"VEC4"
		},
		{
			"bufferView":3,
			"componentType":5126,
			"count":19674,
			"type":"VEC4"
		},
		{
			"bufferView":4,
			"componentType":5123,
			"count":51030,
			"type":"SCALAR"
		},
		{
			"bufferView":5,
			"componentType":5126,
			"count":2434,
			"max":[
				2.2955172061920166,
				6.519465923309326,
				2.716719150543213
			],
			"min":[
				-2.161916732788086,
				5.155701160430908,
				-2.2287168502807617
			],
			"type":"VEC3"
		},
		{
			"bufferView":6,
			"componentType":5126,
			"count":2434,
			"type":"VEC3"
		},
		{
			"bufferView":7,
			"componentType":5121,
			"count":2434,
			"type":"VEC4"
		},
		{
			"bufferView":8,
			"componentType":5126,
			"count":2434,
			"type":"VEC4"
		},
		{
			"bufferView":9,
			"componentType":5123,
			"count":4506,
			"type":"SCALAR"
		},
		{
			"bufferView":10,
			"componentType":5126,
			"count":14,
			"type":"MAT4"
		},
		{
			"bufferView":11,
			"componentType":5126,
			"count":2,
			"max":[
				2.5
			],
			"min":[
				0
			],
			"type":"SCALAR"
		},
		{
			"bufferView":12,
			"componentType":5126,
			"count":2,
			"type":"VEC3"
		},
		{
			"bufferView":13,
			"componentType":5126,
			"count":2,
			"type":"VEC4"
		},
		{
			"bufferView":14,
			"componentType":5126,
			"count":2,
			"type":"VEC3"
		},
		{
			"bufferView":15,
			"componentType":5126,
			"count":2,
			"type":"VEC3"
		},
		{
			"bufferView":16,
			"componentType":5126,
			"count":2,
			"type":"VEC4"
		},
		{
			"bufferView":17,
			"componentType":5126,
			"count":2,
			"type":"VEC3"
		},
		{
			"bufferView":18,
			"componentType":5126,
			"count":2,
			"type":"VEC3"
		},
		{
			"bufferView":19,
			"componentType":5126,
			"count":61,
			"max":[
				2.5
			],
			"min":[
				0
			],
			"type":"SCALAR"
		},
		{
			"bufferView":20,
			"componentType":5126,
			"count":61,
			"type":"VEC4"
		},
		{
			"bufferView":21,
			"componentType":5126,
			"count":2,
			"type":"VEC3"
		},
		{
			"bufferView":22,
			"componentType":5126,
			"count":2,
			"type":"VEC3"
		},
		{
			"bufferView":23,
			"componentType":5126,
			"count":61,
			"type":"VEC4"
		},
		{
			"bufferView":24,
			"componentType":5126,
			"count":2,
			"type":"VEC3"
		},
		{
			"bufferView":25,
			"componentType":5126,
			"count":2,
			"type":"VEC3"
		},
		{
			"bufferView":26,
			"componentType":5126,
			"count":61,
			"type":"VEC4"
		},
		{
			"bufferView":27,
			"componentType":5126,
			"count":2,
			"type":"VEC3"
		},
		{
			"bufferView":28,
			"componentType":5126,
			"count":2,
			"type":"VEC3"
		},
		{
			"bufferView":29,
			"componentType":5126,
			"count":61,
			"type":"VEC4"
		},
		{
			"bufferView":30,
			"componentType":5126,
			"count":2,
			"type":"VEC3"
		},
		{
			"bufferView":31,
			"componentType":5126,
			"count":2,
			"type":"VEC3"
		},
		{
			"bufferView":32,
			"componentType":5126,
			"count":61,
			"type":"VEC4"
		},
		{
			"bufferView":33,
			"componentType":5126,
			"count":2,
			"type":"VEC3"
		},
		{
			"bufferView":34,
			"componentType":5126,
			"count":2,
			"type":"VEC3"
		},
		{
			"bufferView":35,
			"componentType":5126,
			"count":2,
			"type":"VEC4"
		},
		{
			"bufferView":36,
			"componentType":5126,
			"count":2,
			"type":"VEC3"
		},
		{
			"bufferView":37,
			"componentType":5126,
			"count":2,
			"type":"VEC3"
		},
		{
			"bufferView":38,
			"componentType":5126,
			"count":2,
			"type":"VEC4"
		},
		{
			"bufferView":39,
			"componentType":5126,
			"count":2,
			"type":"VEC3"
		},
		{
			"bufferView":40,
			"componentType":5126,
			"count":2,
			"type":"VEC3"
		},
		{
			"bufferView":41,
			"componentType":5126,
			"count":2,
			"type":"VEC4"
		},
		{
			"bufferView":42,
			"componentType":5126,
			"count":2,
			"type":"VEC3"
		},
		{
			"bufferView":43,
			"componentType":5126,
			"count":2,
			"type":"VEC3"
		},
		{
			"bufferView":44,
			"componentType":5126,
			"count":2,
			"type":"VEC4"
		},
		{
			"bufferView":45,
			"componentType":5126,
			"count":2,
			"type":"VEC3"
		},
		{
			"bufferView":46,
			"componentType":5126,
			"count":2,
			"type":"VEC3"
		},
		{
			"bufferView":47,
			"componentType":5126,
			"count":2,
			"type":"VEC4"
		},
		{
			"bufferView":48,
			"componentType":5126,
			"count":2,
			"type":"VEC3"
		},
		{
			"bufferView":49,
			"componentType":5126,
			"count":2,
			"type":"VEC3"
		},
		{
			"bufferView":50,
			"componentType":5126,
			"count":2,
			"type":"VEC4"
		},
		{
			"bufferView":51,
			"componentType":5126,
			"count":2,
			"type":"VEC3"
		},
		{
			"bufferView":52,
			"componentType":5126,
			"count":2,
			"type":"VEC3"
		},
		{
			"bufferView":53,
			"componentType":5126,
			"count":61,
			"type":"VEC4"
		},
		{
			"bufferView":54,
			"componentType":5126,
			"count":2,
			"type":"VEC3"
		}
	],
	"bufferViews":[
		{
			"buffer":0,
			"byteLength":236088,
			"byteOffset":0,
			"target":34962
		},
		{
			"buffer":0,
			"byteLength":236088,
			"byteOffset":236088,
			"target":34962
		},
		{
			"buffer":0,
			"byteLength":78696,
			"byteOffset":472176,
			"target":34962
		},
		{
			"buffer":0,
			"byteLength":314784,
			"byteOffset":550872,
			"target":34962
		},
		{
			"buffer":0,
			"byteLength":102060,
			"byteOffset":865656,
			"target":34963
		},
		{
			"buffer":0,
			"byteLength":29208,
			"byteOffset":967716,
			"target":34962
		},
		{
			"buffer":0,
			"byteLength":29208,
			"byteOffset":996924,
			"target":34962
		},
		{
			"buffer":0,
			"byteLength":9736,
			"byteOffset":1026132,
			"target":34962
		},
		{
			"buffer":0,
			"byteLength":38944,
			"byteOffset":1035868,
			"target":34962
		},
		{
			"buffer":0,
			"byteLength":9012,
			"byteOffset":1074812,
			"target":34963
		},
		{
			"buffer":0,
			"byteLength":896,
			"byteOffset":1083824
		},
		{
			"buffer":0,
			"byteLength":8,
			"byteOffset":1084720
		},
		{
			"buffer":0,
			"byteLength":24,
			"byteOffset":1084728
		},
		{
			"buffer":0,
			"byteLength":32,
			"byteOffset":1084752
		},
		{
			"buffer":0,
			"byteLength":24,
			"byteOffset":1084784
		},
		{
			"buffer":0,
			"byteLength":24,
			"byteOffset":1084808
		},
		{
			"buffer":0,
			"byteLength":32,
			"byteOffset":1084832
		},
		{
			"buffer":0,
			"byteLength":24,
			"byteOffset":1084864
		},
		{
			"buffer":0,
			"byteLength":24,
			"byteOffset":1084888
		},
		{
			"buffer":0,
			"byteLength":244,
			"byteOffset":1084912
		},
		{
			"buffer":0,
			"byteLength":976,
			"byteOffset":1085156
		},
		{
			"buffer":0,
			"byteLength":24,
			"byteOffset":1086132
		},
		{
			"buffer":0,
			"byteLength":24,
			"byteOffset":1086156
		},
		{
			"buffer":0,
			"byteLength":976,
			"byteOffset":1086180
		},
		{
			"buffer":0,
			"byteLength":24,
			"byteOffset":1087156
		},
		{
			"buffer":0,
			"byteLength":24,
			"byteOffset":1087180
		},
		{
			"buffer":0,
			"byteLength":976,
			"byteOffset":1087204
		},
		{
			"buffer":0,
			"byteLength":24,
			"byteOffset":1088180
		},
		{
			"buffer":0,
			"byteLength":24,
			"byteOffset":1088204
		},
		{
			"buffer":0,
			"byteLength":976,
			"byteOffset":1088228
		},
		{
			"buffer":0,
			"byteLength":24,
			"byteOffset":1089204
		},
		{
			"buffer":0,
			"byteLength":24,
			"byteOffset":1089228
		},
		{
			"buffer":0,
			"byteLength":976,
			"byteOffset":1089252
		},
		{
			"buffer":0,
			"byteLength":24,
			"byteOffset":1090228
		},
		{
			"buffer":0,
			"byteLength":24,
			"byteOffset":1090252
		},
		{
			"buffer":0,
			"byteLength":32,
			"byteOffset":1090276
		},
		{
			"buffer":0,
			"byteLength":24,
			"byteOffset":1090308
		},
		{
			"buffer":0,
			"byteLength":24,
			"byteOffset":1090332
		},
		{
			"buffer":0,
			"byteLength":32,
			"byteOffset":1090356
		},
		{
			"buffer":0,
			"byteLength":24,
			"byteOffset":1090388
		},
		{
			"buffer":0,
			"byteLength":24,
			"byteOffset":1090412
		},
		{
			"buffer":0,
			"byteLength":32,
			"byteOffset":1090436
		},
		{
			"buffer":0,
			"byteLength":24,
			"byteOffset":1090468
		},
		{
			"buffer":0,
			"byteLength":24,
			"byteOffset":1090492
		},
		{
			"buffer":0,
			"byteLength":32,
			"byteOffset":1090516
		},
		{
			"buffer":0,
			"byteLength":24,
			"byteOffset":1090548
		},
		{
			"buffer":0,
			"byteLength":24,
			"byteOffset":1090572
		},
		{
			"buffer":0,
			"byteLength":32,
			"byteOffset":1090596
		},
		{
			"buffer":0,
			"byteLength":24,
			"byteOffset":1090628
		},
		{
			"buffer":0,
			"byteLength":24,
			"byteOffset":1090652
		},
		{
			"buffer":0,
			"byteLength":32,
			"byteOffset":1090676
		},
		{
			"buffer":0,
			"byteLength":24,
			"byteOffset":1090708
		},
		{
			"buffer":0,
			"byteLength":24,
			"byteOffset":1090732
		},
		{
			"buffer":0,
			"byteLength":976,
			"byteOffset":1090756
		},
		{
			"buffer":0,
			"byteLength":24,
			"byteOffset":1091732
		}
	],
	"buffers":[
		{
			"byteLength":1091756,
			"uri":"botorobot.bin"
		}
	]
}
