{
	"asset":{
		"generator":"Khronos glTF Blender I/O v4.3.47",
		"version":"2.0"
	},
	"scene":0,
	"scenes":[
		{
			"name":"Scene",
			"nodes":[
				2
			]
		}
	],
	"nodes":[
		{
			"name":"Bone"
		},
		{
			"mesh":0,
			"name":"Circle.015",
			"skin":0
		},
		{
			"children":[
				1,
				0
			],
			"name":"Armature",
			"scale":[
				0.35598766803741455,
				0.35598766803741455,
				0.35598766803741455
			]
		}
	],
	"materials":[
		{
			"alphaMode":"MASK",
			"doubleSided":true,
			"name":"Grass",
			"pbrMetallicRoughness":{
				"baseColorFactor":[
					0.025709187611937523,
					0.3995474874973297,
					0.13545282185077667,
					0
				],
				"metallicFactor":0,
				"roughnessFactor":0.690034806728363
			}
		}
	],
	"meshes":[
		{
			"name":"Circle.019",
			"primitives":[
				{
					"attributes":{
						"POSITION":0,
						"NORMAL":1,
						"JOINTS_0":2,
						"WEIGHTS_0":3
					},
					"indices":4,
					"material":0
				}
			]
		}
	],
	"skins":[
		{
			"inverseBindMatrices":5,
			"joints":[
				0
			],
			"name":"Armature"
		}
	],
	"accessors":[
		{
			"bufferView":0,
			"componentType":5126,
			"count":72,
			"max":[
				0.09548667818307877,
				0.3997713029384613,
				0.15691474080085754
			],
			"min":[
				-0.12816664576530457,
				1.1110551412230052e-07,
				-0.13879522681236267
			],
			"type":"VEC3"
		},
		{
			"bufferView":1,
			"componentType":5126,
			"count":72,
			"type":"VEC3"
		},
		{
			"bufferView":2,
			"componentType":5121,
			"count":72,
			"type":"VEC4"
		},
		{
			"bufferView":3,
			"componentType":5126,
			"count":72,
			"type":"VEC4"
		},
		{
			"bufferView":4,
			"componentType":5123,
			"count":90,
			"type":"SCALAR"
		},
		{
			"bufferView":5,
			"componentType":5126,
			"count":1,
			"type":"MAT4"
		}
	],
	"bufferViews":[
		{
			"buffer":0,
			"byteLength":864,
			"byteOffset":0,
			"target":34962
		},
		{
			"buffer":0,
			"byteLength":864,
			"byteOffset":864,
			"target":34962
		},
		{
			"buffer":0,
			"byteLength":288,
			"byteOffset":1728,
			"target":34962
		},
		{
			"buffer":0,
			"byteLength":1152,
			"byteOffset":2016,
			"target":34962
		},
		{
			"buffer":0,
			"byteLength":180,
			"byteOffset":3168,
			"target":34963
		},
		{
			"buffer":0,
			"byteLength":64,
			"byteOffset":3348
		}
	],
	"buffers":[
		{
			"byteLength":3412,
			"uri":"grass_3.bin"
		}
	]
}
