{
	"asset":{
		"generator":"Khronos glTF Blender I/O v4.3.47",
		"version":"2.0"
	},
	"scene":0,
	"scenes":[
		{
			"name":"Scene",
			"nodes":[
				2
			]
		}
	],
	"nodes":[
		{
			"name":"Bone"
		},
		{
			"mesh":0,
			"name":"Tree_05_gradient_green",
			"skin":0
		},
		{
			"children":[
				1,
				0
			],
			"name":"Armature"
		}
	],
	"materials":[
		{
			"doubleSided":true,
			"name":"Nature_Pack_Palette.001",
			"pbrMetallicRoughness":{
				"baseColorTexture":{
					"index":0
				},
				"metallicFactor":0
			}
		}
	],
	"meshes":[
		{
			"name":"Cylinder.001",
			"primitives":[
				{
					"attributes":{
						"POSITION":0,
						"NORMAL":1,
						"TEXCOORD_0":2,
						"JOINTS_0":3,
						"WEIGHTS_0":4
					},
					"indices":5,
					"material":0
				}
			]
		}
	],
	"textures":[
		{
			"sampler":0,
			"source":0
		}
	],
	"images":[
		{
			"mimeType":"image/png",
			"name":"Palette_Gradient.png",
			"uri":"Palette_Gradient_png.png"
		}
	],
	"skins":[
		{
			"inverseBindMatrices":6,
			"joints":[
				0
			],
			"name":"Armature"
		}
	],
	"accessors":[
		{
			"bufferView":0,
			"componentType":5126,
			"count":268,
			"max":[
				0.560237467288971,
				2.585552215576172,
				0.47117677330970764
			],
			"min":[
				-0.48463544249534607,
				-0.07095891982316971,
				-0.521320104598999
			],
			"type":"VEC3"
		},
		{
			"bufferView":1,
			"componentType":5126,
			"count":268,
			"type":"VEC3"
		},
		{
			"bufferView":2,
			"componentType":5126,
			"count":268,
			"type":"VEC2"
		},
		{
			"bufferView":3,
			"componentType":5121,
			"count":268,
			"type":"VEC4"
		},
		{
			"bufferView":4,
			"componentType":5126,
			"count":268,
			"type":"VEC4"
		},
		{
			"bufferView":5,
			"componentType":5123,
			"count":288,
			"type":"SCALAR"
		},
		{
			"bufferView":6,
			"componentType":5126,
			"count":1,
			"type":"MAT4"
		}
	],
	"bufferViews":[
		{
			"buffer":0,
			"byteLength":3216,
			"byteOffset":0,
			"target":34962
		},
		{
			"buffer":0,
			"byteLength":3216,
			"byteOffset":3216,
			"target":34962
		},
		{
			"buffer":0,
			"byteLength":2144,
			"byteOffset":6432,
			"target":34962
		},
		{
			"buffer":0,
			"byteLength":1072,
			"byteOffset":8576,
			"target":34962
		},
		{
			"buffer":0,
			"byteLength":4288,
			"byteOffset":9648,
			"target":34962
		},
		{
			"buffer":0,
			"byteLength":576,
			"byteOffset":13936,
			"target":34963
		},
		{
			"buffer":0,
			"byteLength":64,
			"byteOffset":14512
		}
	],
	"samplers":[
		{
			"magFilter":9729,
			"minFilter":9987
		}
	],
	"buffers":[
		{
			"byteLength":14576,
			"uri":"oak.bin"
		}
	]
}
