{
	"asset":{
		"generator":"Khronos glTF Blender I/O v4.3.47",
		"version":"2.0"
	},
	"scene":0,
	"scenes":[
		{
			"name":"Scene",
			"nodes":[
				2
			]
		}
	],
	"nodes":[
		{
			"name":"Bone"
		},
		{
			"mesh":0,
			"name":"Tree_01_autumn",
			"skin":0
		},
		{
			"children":[
				1,
				0
			],
			"name":"Armature"
		}
	],
	"materials":[
		{
			"doubleSided":true,
			"name":"Nature_Pack_Palette.001",
			"pbrMetallicRoughness":{
				"baseColorTexture":{
					"index":0
				},
				"metallicFactor":0
			}
		}
	],
	"meshes":[
		{
			"name":"Cylinder.001",
			"primitives":[
				{
					"attributes":{
						"POSITION":0,
						"NORMAL":1,
						"TEXCOORD_0":2,
						"JOINTS_0":3,
						"WEIGHTS_0":4
					},
					"indices":5,
					"material":0
				}
			]
		}
	],
	"textures":[
		{
			"sampler":0,
			"source":0
		}
	],
	"images":[
		{
			"mimeType":"image/png",
			"name":"Palette_Gradient.png.001",
			"uri":"../../textures/nature/trees.png"
		}
	],
	"skins":[
		{
			"inverseBindMatrices":6,
			"joints":[
				0
			],
			"name":"Armature"
		}
	],
	"accessors":[
		{
			"bufferView":0,
			"componentType":5126,
			"count":310,
			"max":[
				0.4099537134170532,
				1.6100643873214722,
				0.43361905217170715
			],
			"min":[
				-0.42229098081588745,
				-0.04282352700829506,
				-0.4342000484466553
			],
			"type":"VEC3"
		},
		{
			"bufferView":1,
			"componentType":5126,
			"count":310,
			"type":"VEC3"
		},
		{
			"bufferView":2,
			"componentType":5126,
			"count":310,
			"type":"VEC2"
		},
		{
			"bufferView":3,
			"componentType":5121,
			"count":310,
			"type":"VEC4"
		},
		{
			"bufferView":4,
			"componentType":5126,
			"count":310,
			"type":"VEC4"
		},
		{
			"bufferView":5,
			"componentType":5123,
			"count":456,
			"type":"SCALAR"
		},
		{
			"bufferView":6,
			"componentType":5126,
			"count":1,
			"type":"MAT4"
		}
	],
	"bufferViews":[
		{
			"buffer":0,
			"byteLength":3720,
			"byteOffset":0,
			"target":34962
		},
		{
			"buffer":0,
			"byteLength":3720,
			"byteOffset":3720,
			"target":34962
		},
		{
			"buffer":0,
			"byteLength":2480,
			"byteOffset":7440,
			"target":34962
		},
		{
			"buffer":0,
			"byteLength":1240,
			"byteOffset":9920,
			"target":34962
		},
		{
			"buffer":0,
			"byteLength":4960,
			"byteOffset":11160,
			"target":34962
		},
		{
			"buffer":0,
			"byteLength":912,
			"byteOffset":16120,
			"target":34963
		},
		{
			"buffer":0,
			"byteLength":64,
			"byteOffset":17032
		}
	],
	"samplers":[
		{
			"magFilter":9729,
			"minFilter":9987
		}
	],
	"buffers":[
		{
			"byteLength":17096,
			"uri":"spruce.bin"
		}
	]
}
