{
	"asset":{
		"generator":"Khronos glTF Blender I/O v4.3.47",
		"version":"2.0"
	},
	"extensionsUsed":[
		"KHR_materials_transmission",
		"KHR_materials_specular",
		"KHR_materials_ior"
	],
	"scene":0,
	"scenes":[
		{
			"name":"Scene",
			"nodes":[
				2
			]
		}
	],
	"nodes":[
		{
			"name":"Bone"
		},
		{
			"mesh":0,
			"name":"Sphere.004",
			"skin":0
		},
		{
			"children":[
				1,
				0
			],
			"name":"Armature"
		}
	],
	"materials":[
		{
			"doubleSided":true,
			"extensions":{
				"KHR_materials_transmission":{
					"transmissionFactor":1
				},
				"KHR_materials_ior":{
					"ior":1.0099999904632568
				}
			},
			"name":"verre.001",
			"pbrMetallicRoughness":{
				"baseColorFactor":[
					0.539363443851471,
					0.6921234130859375,
					0.8000000715255737,
					1
				],
				"metallicFactor":0,
				"roughnessFactor":0.5
			}
		},
		{
			"doubleSided":true,
			"extensions":{
				"KHR_materials_specular":{
					"specularColorFactor":[
						1.076923131942749,
						1.076923131942749,
						1.076923131942749
					]
				},
				"KHR_materials_ior":{
					"ior":1.4500000476837158
				}
			},
			"name":"metal",
			"pbrMetallicRoughness":{
				"baseColorFactor":[
					0.8095595836639404,
					0.8095595836639404,
					0.8095595836639404,
					1
				],
				"roughnessFactor":0.6553612947463989
			}
		}
	],
	"meshes":[
		{
			"name":"Sphere.004",
			"primitives":[
				{
					"attributes":{
						"POSITION":0,
						"NORMAL":1,
						"TEXCOORD_0":2,
						"JOINTS_0":3,
						"WEIGHTS_0":4
					},
					"indices":5,
					"material":0
				},
				{
					"attributes":{
						"POSITION":6,
						"NORMAL":7,
						"TEXCOORD_0":8,
						"JOINTS_0":9,
						"WEIGHTS_0":10
					},
					"indices":11,
					"material":1
				}
			]
		}
	],
	"skins":[
		{
			"inverseBindMatrices":12,
			"joints":[
				0
			],
			"name":"Armature"
		}
	],
	"accessors":[
		{
			"bufferView":0,
			"componentType":5126,
			"count":880,
			"max":[
				0.9875515699386597,
				1.09270441532135,
				0.9758063554763794
			],
			"min":[
				-0.9875516891479492,
				-5.960464477539063e-08,
				-0.9908715486526489
			],
			"type":"VEC3"
		},
		{
			"bufferView":1,
			"componentType":5126,
			"count":880,
			"type":"VEC3"
		},
		{
			"bufferView":2,
			"componentType":5126,
			"count":880,
			"type":"VEC2"
		},
		{
			"bufferView":3,
			"componentType":5121,
			"count":880,
			"type":"VEC4"
		},
		{
			"bufferView":4,
			"componentType":5126,
			"count":880,
			"type":"VEC4"
		},
		{
			"bufferView":5,
			"componentType":5123,
			"count":1410,
			"type":"SCALAR"
		},
		{
			"bufferView":6,
			"componentType":5126,
			"count":4332,
			"max":[
				0.997099757194519,
				1.102007269859314,
				0.9852859377861023
			],
			"min":[
				-0.9970998764038086,
				-5.960464477539063e-08,
				-1.0969510078430176
			],
			"type":"VEC3"
		},
		{
			"bufferView":7,
			"componentType":5126,
			"count":4332,
			"type":"VEC3"
		},
		{
			"bufferView":8,
			"componentType":5126,
			"count":4332,
			"type":"VEC2"
		},
		{
			"bufferView":9,
			"componentType":5121,
			"count":4332,
			"type":"VEC4"
		},
		{
			"bufferView":10,
			"componentType":5126,
			"count":4332,
			"type":"VEC4"
		},
		{
			"bufferView":11,
			"componentType":5123,
			"count":6678,
			"type":"SCALAR"
		},
		{
			"bufferView":12,
			"componentType":5126,
			"count":1,
			"type":"MAT4"
		}
	],
	"bufferViews":[
		{
			"buffer":0,
			"byteLength":10560,
			"byteOffset":0,
			"target":34962
		},
		{
			"buffer":0,
			"byteLength":10560,
			"byteOffset":10560,
			"target":34962
		},
		{
			"buffer":0,
			"byteLength":7040,
			"byteOffset":21120,
			"target":34962
		},
		{
			"buffer":0,
			"byteLength":3520,
			"byteOffset":28160,
			"target":34962
		},
		{
			"buffer":0,
			"byteLength":14080,
			"byteOffset":31680,
			"target":34962
		},
		{
			"buffer":0,
			"byteLength":2820,
			"byteOffset":45760,
			"target":34963
		},
		{
			"buffer":0,
			"byteLength":51984,
			"byteOffset":48580,
			"target":34962
		},
		{
			"buffer":0,
			"byteLength":51984,
			"byteOffset":100564,
			"target":34962
		},
		{
			"buffer":0,
			"byteLength":34656,
			"byteOffset":152548,
			"target":34962
		},
		{
			"buffer":0,
			"byteLength":17328,
			"byteOffset":187204,
			"target":34962
		},
		{
			"buffer":0,
			"byteLength":69312,
			"byteOffset":204532,
			"target":34962
		},
		{
			"buffer":0,
			"byteLength":13356,
			"byteOffset":273844,
			"target":34963
		},
		{
			"buffer":0,
			"byteLength":64,
			"byteOffset":287200
		}
	],
	"buffers":[
		{
			"byteLength":287264,
			"uri":"dome.bin"
		}
	]
}
