{
	"asset":{
		"generator":"Khronos glTF Blender I/O v4.3.47",
		"version":"2.0"
	},
	"extensionsUsed":[
		"KHR_materials_specular",
		"KHR_materials_ior"
	],
	"scene":0,
	"scenes":[
		{
			"name":"Scene",
			"nodes":[
				2
			]
		}
	],
	"nodes":[
		{
			"name":"Bone"
		},
		{
			"mesh":0,
			"name":"Sphere.004",
			"skin":0
		},
		{
			"children":[
				1,
				0
			],
			"name":"Armature"
		}
	],
	"materials":[
		{
			"doubleSided":true,
			"extensions":{
				"KHR_materials_specular":{
					"specularColorFactor":[
						1.076923131942749,
						1.076923131942749,
						1.076923131942749
					]
				},
				"KHR_materials_ior":{
					"ior":1.4500000476837158
				}
			},
			"name":"metal",
			"pbrMetallicRoughness":{
				"baseColorFactor":[
					0.20249691605567932,
					0.20249691605567932,
					0.20249691605567932,
					1
				],
				"roughnessFactor":0.6553612947463989
			}
		},
		{
			"doubleSided":true,
			"name":"herbe",
			"pbrMetallicRoughness":{
				"baseColorFactor":[
					0.04461062327027321,
					0.4515761733055115,
					0.028661780059337616,
					1
				],
				"metallicFactor":0,
				"roughnessFactor":0.5
			}
		}
	],
	"meshes":[
		{
			"name":"Sphere.004",
			"primitives":[
				{
					"attributes":{
						"POSITION":0,
						"NORMAL":1,
						"TEXCOORD_0":2,
						"JOINTS_0":3,
						"WEIGHTS_0":4
					},
					"indices":5,
					"material":0
				},
				{
					"attributes":{
						"POSITION":6,
						"NORMAL":7,
						"TEXCOORD_0":8,
						"JOINTS_0":9,
						"WEIGHTS_0":10
					},
					"indices":11,
					"material":1
				}
			]
		}
	],
	"skins":[
		{
			"inverseBindMatrices":12,
			"joints":[
				0
			],
			"name":"Armature"
		}
	],
	"accessors":[
		{
			"bufferView":0,
			"componentType":5126,
			"count":4656,
			"max":[
				1.2496660947799683,
				1.102007269859314,
				1.2025054693222046
			],
			"min":[
				-1.2392524480819702,
				-0.4334259629249573,
				-1.2799997329711914
			],
			"type":"VEC3"
		},
		{
			"bufferView":1,
			"componentType":5126,
			"count":4656,
			"type":"VEC3"
		},
		{
			"bufferView":2,
			"componentType":5126,
			"count":4656,
			"type":"VEC2"
		},
		{
			"bufferView":3,
			"componentType":5121,
			"count":4656,
			"type":"VEC4"
		},
		{
			"bufferView":4,
			"componentType":5126,
			"count":4656,
			"type":"VEC4"
		},
		{
			"bufferView":5,
			"componentType":5123,
			"count":7110,
			"type":"SCALAR"
		},
		{
			"bufferView":6,
			"componentType":5126,
			"count":17,
			"max":[
				0.8769615888595581,
				-0.00041325390338897705,
				0.8326911330223083
			],
			"min":[
				-0.8652814030647278,
				-0.00041325390338897705,
				-0.9050624966621399
			],
			"type":"VEC3"
		},
		{
			"bufferView":7,
			"componentType":5126,
			"count":17,
			"type":"VEC3"
		},
		{
			"bufferView":8,
			"componentType":5126,
			"count":17,
			"type":"VEC2"
		},
		{
			"bufferView":9,
			"componentType":5121,
			"count":17,
			"type":"VEC4"
		},
		{
			"bufferView":10,
			"componentType":5126,
			"count":17,
			"type":"VEC4"
		},
		{
			"bufferView":11,
			"componentType":5123,
			"count":45,
			"type":"SCALAR"
		},
		{
			"bufferView":12,
			"componentType":5126,
			"count":1,
			"type":"MAT4"
		}
	],
	"bufferViews":[
		{
			"buffer":0,
			"byteLength":55872,
			"byteOffset":0,
			"target":34962
		},
		{
			"buffer":0,
			"byteLength":55872,
			"byteOffset":55872,
			"target":34962
		},
		{
			"buffer":0,
			"byteLength":37248,
			"byteOffset":111744,
			"target":34962
		},
		{
			"buffer":0,
			"byteLength":18624,
			"byteOffset":148992,
			"target":34962
		},
		{
			"buffer":0,
			"byteLength":74496,
			"byteOffset":167616,
			"target":34962
		},
		{
			"buffer":0,
			"byteLength":14220,
			"byteOffset":242112,
			"target":34963
		},
		{
			"buffer":0,
			"byteLength":204,
			"byteOffset":256332,
			"target":34962
		},
		{
			"buffer":0,
			"byteLength":204,
			"byteOffset":256536,
			"target":34962
		},
		{
			"buffer":0,
			"byteLength":136,
			"byteOffset":256740,
			"target":34962
		},
		{
			"buffer":0,
			"byteLength":68,
			"byteOffset":256876,
			"target":34962
		},
		{
			"buffer":0,
			"byteLength":272,
			"byteOffset":256944,
			"target":34962
		},
		{
			"buffer":0,
			"byteLength":90,
			"byteOffset":257216,
			"target":34963
		},
		{
			"buffer":0,
			"byteLength":64,
			"byteOffset":257308
		}
	],
	"buffers":[
		{
			"byteLength":257372,
			"uri":"dome.bin"
		}
	]
}
