{
	"asset":{
		"generator":"Khronos glTF Blender I/O v4.3.47",
		"version":"2.0"
	},
	"scene":0,
	"scenes":[
		{
			"name":"Scene",
			"nodes":[
				11
			]
		}
	],
	"nodes":[
		{
			"name":"Bone.001",
			"rotation":[
				1.1257306198331207e-07,
				-2.080689176509054e-09,
				-0.9190002679824829,
				0.39425694942474365
			],
			"scale":[
				1.0000003576278687,
				1,
				1
			],
			"translation":[
				0,
				1,
				0
			]
		},
		{
			"name":"High",
			"rotation":[
				1.4048147534140298e-07,
				2.4170447865401457e-09,
				0.937885046005249,
				0.34694617986679077
			],
			"scale":[
				0.9999999403953552,
				1,
				1
			],
			"translation":[
				0,
				1,
				0
			]
		},
		{
			"name":"Top",
			"rotation":[
				-6.6594040504242e-08,
				2.726650016882104e-08,
				-0.019988011568784714,
				0.9998002052307129
			],
			"scale":[
				1,
				0.9999999403953552,
				1
			],
			"translation":[
				0,
				1,
				0
			]
		},
		{
			"name":"Bone.007",
			"rotation":[
				-0.9247352480888367,
				6.040993981192347e-17,
				6.040989348980917e-17,
				0.3806110620498657
			],
			"scale":[
				1,
				0.9999999403953552,
				0.9999997615814209
			],
			"translation":[
				0,
				1,
				0
			]
		},
		{
			"name":"Bone.008",
			"rotation":[
				0.9156416654586792,
				4.792162400235611e-08,
				1.0915305637126949e-07,
				0.401995450258255
			],
			"scale":[
				1,
				1,
				1.000000238418579
			],
			"translation":[
				0,
				1,
				0
			]
		},
		{
			"children":[
				0,
				1,
				2,
				3,
				4
			],
			"name":"Center"
		},
		{
			"name":"Bone.004",
			"rotation":[
				-0.6566120386123657,
				-0.26241275668144226,
				-0.6566122770309448,
				0.26241278648376465
			],
			"scale":[
				1,
				1.0000001192092896,
				1.0000001192092896
			]
		},
		{
			"name":"Bone.006",
			"rotation":[
				-0.6734756231307983,
				0.21547752618789673,
				0.6734756827354431,
				0.21547745168209076
			],
			"scale":[
				0.9999999403953552,
				0.9999998807907104,
				0.9999999403953552
			]
		},
		{
			"name":"Bone.009",
			"rotation":[
				1.754354030936156e-07,
				-0.43377387523651123,
				-0.9010217785835266,
				8.445889676522711e-08
			],
			"scale":[
				1,
				1.000000238418579,
				1.0000004768371582
			]
		},
		{
			"name":"Bone.010",
			"rotation":[
				-0.9226561188697815,
				5.96225697478914e-17,
				5.96225697478914e-17,
				0.3856237232685089
			]
		},
		{
			"mesh":0,
			"name":"Icosphere",
			"skin":0
		},
		{
			"children":[
				10,
				5,
				6,
				7,
				8,
				9
			],
			"name":"Armature",
			"translation":[
				-0.012688225135207176,
				0.09017956256866455,
				0.004722431302070618
			]
		}
	],
	"animations":[
		{
			"channels":[
				{
					"sampler":0,
					"target":{
						"node":5,
						"path":"translation"
					}
				},
				{
					"sampler":1,
					"target":{
						"node":5,
						"path":"rotation"
					}
				},
				{
					"sampler":2,
					"target":{
						"node":5,
						"path":"scale"
					}
				},
				{
					"sampler":3,
					"target":{
						"node":0,
						"path":"translation"
					}
				},
				{
					"sampler":4,
					"target":{
						"node":0,
						"path":"rotation"
					}
				},
				{
					"sampler":5,
					"target":{
						"node":0,
						"path":"scale"
					}
				},
				{
					"sampler":6,
					"target":{
						"node":1,
						"path":"translation"
					}
				},
				{
					"sampler":7,
					"target":{
						"node":1,
						"path":"rotation"
					}
				},
				{
					"sampler":8,
					"target":{
						"node":1,
						"path":"scale"
					}
				},
				{
					"sampler":9,
					"target":{
						"node":2,
						"path":"translation"
					}
				},
				{
					"sampler":10,
					"target":{
						"node":2,
						"path":"rotation"
					}
				},
				{
					"sampler":11,
					"target":{
						"node":2,
						"path":"scale"
					}
				},
				{
					"sampler":12,
					"target":{
						"node":3,
						"path":"translation"
					}
				},
				{
					"sampler":13,
					"target":{
						"node":3,
						"path":"rotation"
					}
				},
				{
					"sampler":14,
					"target":{
						"node":3,
						"path":"scale"
					}
				},
				{
					"sampler":15,
					"target":{
						"node":4,
						"path":"translation"
					}
				},
				{
					"sampler":16,
					"target":{
						"node":4,
						"path":"rotation"
					}
				},
				{
					"sampler":17,
					"target":{
						"node":4,
						"path":"scale"
					}
				},
				{
					"sampler":18,
					"target":{
						"node":6,
						"path":"translation"
					}
				},
				{
					"sampler":19,
					"target":{
						"node":6,
						"path":"rotation"
					}
				},
				{
					"sampler":20,
					"target":{
						"node":6,
						"path":"scale"
					}
				},
				{
					"sampler":21,
					"target":{
						"node":7,
						"path":"translation"
					}
				},
				{
					"sampler":22,
					"target":{
						"node":7,
						"path":"rotation"
					}
				},
				{
					"sampler":23,
					"target":{
						"node":7,
						"path":"scale"
					}
				},
				{
					"sampler":24,
					"target":{
						"node":8,
						"path":"translation"
					}
				},
				{
					"sampler":25,
					"target":{
						"node":8,
						"path":"rotation"
					}
				},
				{
					"sampler":26,
					"target":{
						"node":8,
						"path":"scale"
					}
				},
				{
					"sampler":27,
					"target":{
						"node":9,
						"path":"translation"
					}
				},
				{
					"sampler":28,
					"target":{
						"node":9,
						"path":"rotation"
					}
				},
				{
					"sampler":29,
					"target":{
						"node":9,
						"path":"scale"
					}
				}
			],
			"name":"ArmatureAction",
			"samplers":[
				{
					"input":7,
					"interpolation":"STEP",
					"output":8
				},
				{
					"input":9,
					"interpolation":"LINEAR",
					"output":10
				},
				{
					"input":7,
					"interpolation":"STEP",
					"output":11
				},
				{
					"input":7,
					"interpolation":"STEP",
					"output":12
				},
				{
					"input":9,
					"interpolation":"LINEAR",
					"output":13
				},
				{
					"input":7,
					"interpolation":"STEP",
					"output":14
				},
				{
					"input":7,
					"interpolation":"STEP",
					"output":15
				},
				{
					"input":9,
					"interpolation":"LINEAR",
					"output":16
				},
				{
					"input":7,
					"interpolation":"STEP",
					"output":17
				},
				{
					"input":7,
					"interpolation":"STEP",
					"output":18
				},
				{
					"input":9,
					"interpolation":"LINEAR",
					"output":19
				},
				{
					"input":7,
					"interpolation":"STEP",
					"output":20
				},
				{
					"input":7,
					"interpolation":"STEP",
					"output":21
				},
				{
					"input":9,
					"interpolation":"LINEAR",
					"output":22
				},
				{
					"input":7,
					"interpolation":"STEP",
					"output":23
				},
				{
					"input":7,
					"interpolation":"STEP",
					"output":24
				},
				{
					"input":9,
					"interpolation":"LINEAR",
					"output":25
				},
				{
					"input":7,
					"interpolation":"STEP",
					"output":26
				},
				{
					"input":7,
					"interpolation":"STEP",
					"output":27
				},
				{
					"input":9,
					"interpolation":"LINEAR",
					"output":28
				},
				{
					"input":7,
					"interpolation":"STEP",
					"output":29
				},
				{
					"input":7,
					"interpolation":"STEP",
					"output":30
				},
				{
					"input":9,
					"interpolation":"LINEAR",
					"output":31
				},
				{
					"input":7,
					"interpolation":"STEP",
					"output":32
				},
				{
					"input":7,
					"interpolation":"STEP",
					"output":33
				},
				{
					"input":9,
					"interpolation":"LINEAR",
					"output":34
				},
				{
					"input":7,
					"interpolation":"STEP",
					"output":35
				},
				{
					"input":7,
					"interpolation":"STEP",
					"output":36
				},
				{
					"input":9,
					"interpolation":"LINEAR",
					"output":37
				},
				{
					"input":7,
					"interpolation":"STEP",
					"output":38
				}
			]
		}
	],
	"materials":[
		{
			"doubleSided":true,
			"name":"Material.001",
			"pbrMetallicRoughness":{
				"baseColorTexture":{
					"index":0
				},
				"metallicFactor":0,
				"roughnessFactor":0.5
			}
		}
	],
	"meshes":[
		{
			"name":"Icosphere.002",
			"primitives":[
				{
					"attributes":{
						"POSITION":0,
						"NORMAL":1,
						"TEXCOORD_0":2,
						"JOINTS_0":3,
						"WEIGHTS_0":4
					},
					"indices":5,
					"material":0
				}
			]
		}
	],
	"textures":[
		{
			"sampler":0,
			"source":0
		}
	],
	"images":[
		{
			"mimeType":"image/png",
			"name":"Flame.png.001",
			"uri":"../../../../Models/flame/Flame.png"
		}
	],
	"skins":[
		{
			"inverseBindMatrices":6,
			"joints":[
				5,
				0,
				1,
				2,
				3,
				4,
				6,
				7,
				8,
				9
			],
			"name":"Armature"
		}
	],
	"accessors":[
		{
			"bufferView":0,
			"componentType":5126,
			"count":240,
			"max":[
				0.9510578513145447,
				2.028841257095337,
				0.9999999403953552
			],
			"min":[
				-0.9510578513145447,
				-1,
				-0.9999999403953552
			],
			"type":"VEC3"
		},
		{
			"bufferView":1,
			"componentType":5126,
			"count":240,
			"type":"VEC3"
		},
		{
			"bufferView":2,
			"componentType":5126,
			"count":240,
			"type":"VEC2"
		},
		{
			"bufferView":3,
			"componentType":5121,
			"count":240,
			"type":"VEC4"
		},
		{
			"bufferView":4,
			"componentType":5126,
			"count":240,
			"type":"VEC4"
		},
		{
			"bufferView":5,
			"componentType":5123,
			"count":240,
			"type":"SCALAR"
		},
		{
			"bufferView":6,
			"componentType":5126,
			"count":10,
			"type":"MAT4"
		},
		{
			"bufferView":7,
			"componentType":5126,
			"count":2,
			"max":[
				5.833333333333333
			],
			"min":[
				0
			],
			"type":"SCALAR"
		},
		{
			"bufferView":8,
			"componentType":5126,
			"count":2,
			"type":"VEC3"
		},
		{
			"bufferView":9,
			"componentType":5126,
			"count":141,
			"max":[
				5.833333333333333
			],
			"min":[
				0
			],
			"type":"SCALAR"
		},
		{
			"bufferView":10,
			"componentType":5126,
			"count":141,
			"type":"VEC4"
		},
		{
			"bufferView":11,
			"componentType":5126,
			"count":2,
			"type":"VEC3"
		},
		{
			"bufferView":12,
			"componentType":5126,
			"count":2,
			"type":"VEC3"
		},
		{
			"bufferView":13,
			"componentType":5126,
			"count":141,
			"type":"VEC4"
		},
		{
			"bufferView":14,
			"componentType":5126,
			"count":2,
			"type":"VEC3"
		},
		{
			"bufferView":15,
			"componentType":5126,
			"count":2,
			"type":"VEC3"
		},
		{
			"bufferView":16,
			"componentType":5126,
			"count":141,
			"type":"VEC4"
		},
		{
			"bufferView":17,
			"componentType":5126,
			"count":2,
			"type":"VEC3"
		},
		{
			"bufferView":18,
			"componentType":5126,
			"count":2,
			"type":"VEC3"
		},
		{
			"bufferView":19,
			"componentType":5126,
			"count":141,
			"type":"VEC4"
		},
		{
			"bufferView":20,
			"componentType":5126,
			"count":2,
			"type":"VEC3"
		},
		{
			"bufferView":21,
			"componentType":5126,
			"count":2,
			"type":"VEC3"
		},
		{
			"bufferView":22,
			"componentType":5126,
			"count":141,
			"type":"VEC4"
		},
		{
			"bufferView":23,
			"componentType":5126,
			"count":2,
			"type":"VEC3"
		},
		{
			"bufferView":24,
			"componentType":5126,
			"count":2,
			"type":"VEC3"
		},
		{
			"bufferView":25,
			"componentType":5126,
			"count":141,
			"type":"VEC4"
		},
		{
			"bufferView":26,
			"componentType":5126,
			"count":2,
			"type":"VEC3"
		},
		{
			"bufferView":27,
			"componentType":5126,
			"count":2,
			"type":"VEC3"
		},
		{
			"bufferView":28,
			"componentType":5126,
			"count":141,
			"type":"VEC4"
		},
		{
			"bufferView":29,
			"componentType":5126,
			"count":2,
			"type":"VEC3"
		},
		{
			"bufferView":30,
			"componentType":5126,
			"count":2,
			"type":"VEC3"
		},
		{
			"bufferView":31,
			"componentType":5126,
			"count":141,
			"type":"VEC4"
		},
		{
			"bufferView":32,
			"componentType":5126,
			"count":2,
			"type":"VEC3"
		},
		{
			"bufferView":33,
			"componentType":5126,
			"count":2,
			"type":"VEC3"
		},
		{
			"bufferView":34,
			"componentType":5126,
			"count":141,
			"type":"VEC4"
		},
		{
			"bufferView":35,
			"componentType":5126,
			"count":2,
			"type":"VEC3"
		},
		{
			"bufferView":36,
			"componentType":5126,
			"count":2,
			"type":"VEC3"
		},
		{
			"bufferView":37,
			"componentType":5126,
			"count":141,
			"type":"VEC4"
		},
		{
			"bufferView":38,
			"componentType":5126,
			"count":2,
			"type":"VEC3"
		}
	],
	"bufferViews":[
		{
			"buffer":0,
			"byteLength":2880,
			"byteOffset":0,
			"target":34962
		},
		{
			"buffer":0,
			"byteLength":2880,
			"byteOffset":2880,
			"target":34962
		},
		{
			"buffer":0,
			"byteLength":1920,
			"byteOffset":5760,
			"target":34962
		},
		{
			"buffer":0,
			"byteLength":960,
			"byteOffset":7680,
			"target":34962
		},
		{
			"buffer":0,
			"byteLength":3840,
			"byteOffset":8640,
			"target":34962
		},
		{
			"buffer":0,
			"byteLength":480,
			"byteOffset":12480,
			"target":34963
		},
		{
			"buffer":0,
			"byteLength":640,
			"byteOffset":12960
		},
		{
			"buffer":0,
			"byteLength":8,
			"byteOffset":13600
		},
		{
			"buffer":0,
			"byteLength":24,
			"byteOffset":13608
		},
		{
			"buffer":0,
			"byteLength":564,
			"byteOffset":13632
		},
		{
			"buffer":0,
			"byteLength":2256,
			"byteOffset":14196
		},
		{
			"buffer":0,
			"byteLength":24,
			"byteOffset":16452
		},
		{
			"buffer":0,
			"byteLength":24,
			"byteOffset":16476
		},
		{
			"buffer":0,
			"byteLength":2256,
			"byteOffset":16500
		},
		{
			"buffer":0,
			"byteLength":24,
			"byteOffset":18756
		},
		{
			"buffer":0,
			"byteLength":24,
			"byteOffset":18780
		},
		{
			"buffer":0,
			"byteLength":2256,
			"byteOffset":18804
		},
		{
			"buffer":0,
			"byteLength":24,
			"byteOffset":21060
		},
		{
			"buffer":0,
			"byteLength":24,
			"byteOffset":21084
		},
		{
			"buffer":0,
			"byteLength":2256,
			"byteOffset":21108
		},
		{
			"buffer":0,
			"byteLength":24,
			"byteOffset":23364
		},
		{
			"buffer":0,
			"byteLength":24,
			"byteOffset":23388
		},
		{
			"buffer":0,
			"byteLength":2256,
			"byteOffset":23412
		},
		{
			"buffer":0,
			"byteLength":24,
			"byteOffset":25668
		},
		{
			"buffer":0,
			"byteLength":24,
			"byteOffset":25692
		},
		{
			"buffer":0,
			"byteLength":2256,
			"byteOffset":25716
		},
		{
			"buffer":0,
			"byteLength":24,
			"byteOffset":27972
		},
		{
			"buffer":0,
			"byteLength":24,
			"byteOffset":27996
		},
		{
			"buffer":0,
			"byteLength":2256,
			"byteOffset":28020
		},
		{
			"buffer":0,
			"byteLength":24,
			"byteOffset":30276
		},
		{
			"buffer":0,
			"byteLength":24,
			"byteOffset":30300
		},
		{
			"buffer":0,
			"byteLength":2256,
			"byteOffset":30324
		},
		{
			"buffer":0,
			"byteLength":24,
			"byteOffset":32580
		},
		{
			"buffer":0,
			"byteLength":24,
			"byteOffset":32604
		},
		{
			"buffer":0,
			"byteLength":2256,
			"byteOffset":32628
		},
		{
			"buffer":0,
			"byteLength":24,
			"byteOffset":34884
		},
		{
			"buffer":0,
			"byteLength":24,
			"byteOffset":34908
		},
		{
			"buffer":0,
			"byteLength":2256,
			"byteOffset":34932
		},
		{
			"buffer":0,
			"byteLength":24,
			"byteOffset":37188
		}
	],
	"samplers":[
		{
			"magFilter":9729,
			"minFilter":9987
		}
	],
	"buffers":[
		{
			"byteLength":37212,
			"uri":"flame.bin"
		}
	]
}
